<?xml version="1.0" encoding="utf-8"?>
<!-- Generator: Adobe Illustrator 14.0.0, SVG Export Plug-In . SVG Version: 6.00 Build 43363)  -->
<!DOCTYPE svg PUBLIC "-//W3C//DTD SVG 1.1//EN" "http://www.w3.org/Graphics/SVG/1.1/DTD/svg11.dtd">
<svg version="1.1" id="Ebene_1" xmlns="http://www.w3.org/2000/svg" xmlns:xlink="http://www.w3.org/1999/xlink" x="0px" y="0px"
	 width="329.942px" height="72.882px" viewBox="0 0 329.942 72.882" enable-background="new 0 0 329.942 72.882"
	 xml:space="preserve">
<g>
	<path fill="#FFFFFF" d="M36.083,66.572c17.214,0,31.168-13.813,31.168-30.852h4.916C72.167,15.992,56.012,0,36.083,0
		C16.155,0,0,15.992,0,35.721c0,19.727,16.155,35.719,36.083,35.719V66.572z M11.539,35.721c0-13.42,10.989-24.299,24.544-24.299
		c13.557,0,24.547,10.879,24.547,24.299c0,13.418-10.99,24.297-24.547,24.297C22.527,60.018,11.539,49.139,11.539,35.721z"/>
	<g>
		<path fill="#FFFFFF" d="M42.048,15.979c-8.073-2.567-15.786,0.612-20.181,4.833c0.135,5.414,1.021,9.639,2.425,13.217
			C26.162,24.932,33.492,17.402,42.048,15.979z"/>
		<path fill="#FFFFFF" d="M17.037,28.023C12.142,41.1,20.593,51.872,29.352,54.838c-2.823-3.4-4.87-8.223-5.405-13.012
			C20.2,38.117,17.618,33.386,17.037,28.023z"/>
		<path fill="#FFFFFF" d="M26.787,43.845c0.709,4.269,1.927,8.466,4.492,11.556c8.945,2.24,16.821-2.164,20.695-7.053
			C43.77,52.227,34.598,50.104,26.787,43.845z"/>
		<path fill="#FFFFFF" d="M52.659,47.44c9.277-13.253,0.337-26.664-7.604-30.271c-9.409,1.566-17.86,10.378-18.784,20.792
			C33.679,50.484,48.505,48.826,52.659,47.44z"/>
	</g>
	<g>
		<path fill="#FFFFFF" d="M77.305,52.879V30.117c0-2.276,0.671-4.122,2.015-5.537c1.344-1.414,3.132-2.121,5.367-2.121h3.267v3.818
			H86.66c-2.375,0-3.871,0.329-4.486,0.986s-0.923,2.224-0.923,4.699h6.194v3.818h-6.194v17.098H77.305z"/>
		<path fill="#FFFFFF" d="M90.262,31.963h3.776v2.27c0.82-1.089,1.782-1.832,2.885-2.228c0.905-0.325,2.121-0.48,3.648-0.467v3.84
			c-2.22,0-3.836,0.608-4.847,1.825c-1.011,1.216-1.517,3.189-1.517,5.918v9.758h-3.946V31.963z"/>
		<path fill="#FFFFFF" d="M108.083,46.101l-1.639-3.186l10.14-5.691c-1.216-1.23-2.729-1.845-4.539-1.845
			c-1.924,0-3.512,0.676-4.763,2.029c-1.252,1.353-1.877,3.027-1.877,5.024c0,2.04,0.629,3.732,1.888,5.078
			c1.258,1.346,2.843,2.018,4.752,2.018c3.789,0,6.073-2.17,6.852-6.512l3.988,0.509c-0.283,2.913-1.425,5.271-3.426,7.075
			c-2.002,1.803-4.466,2.704-7.394,2.704c-3.04,0-5.597-1.054-7.668-3.161s-3.108-4.681-3.108-7.721c0-3.027,1.04-5.597,3.119-7.712
			c2.079-2.114,4.625-3.171,7.638-3.171c2.192,0,4.177,0.588,5.951,1.763c1.775,1.174,3.151,2.816,4.127,4.925L108.083,46.101z"/>
		<path fill="#FFFFFF" d="M132.474,46.101l-1.639-3.186l10.141-5.691c-1.217-1.23-2.729-1.845-4.54-1.845
			c-1.924,0-3.511,0.676-4.763,2.029c-1.251,1.353-1.877,3.027-1.877,5.024c0,2.04,0.629,3.732,1.888,5.078s2.843,2.018,4.752,2.018
			c3.79,0,6.074-2.17,6.852-6.512l3.988,0.509c-0.283,2.913-1.425,5.271-3.426,7.075c-2.001,1.803-4.465,2.704-7.393,2.704
			c-3.041,0-5.598-1.054-7.669-3.161c-2.072-2.107-3.107-4.681-3.107-7.721c0-3.027,1.039-5.597,3.118-7.712
			c2.079-2.114,4.625-3.171,7.639-3.171c2.192,0,4.176,0.588,5.951,1.763c1.775,1.174,3.15,2.816,4.127,4.925L132.474,46.101z"/>
		<path fill="#FFFFFF" d="M149.944,52.879V22.459h3.967v30.419H149.944z"/>
		<path fill="#FFFFFF" d="M173.826,52.879V41.127c0-1.697-0.622-3.079-1.866-4.146c-1.245-1.068-2.829-1.602-4.752-1.602
			c-1.924,0-3.519,0.68-4.784,2.04c-1.266,1.359-1.898,3.059-1.898,5.099c0,1.94,0.637,3.595,1.909,4.961
			c1.272,1.367,2.85,2.05,4.73,2.05c1.924,0,3.684-1.011,5.282-3.033v4.795c-1.711,1.344-3.6,2.015-5.664,2.015
			c-2.885,0-5.307-1.078-7.266-3.235c-1.959-2.156-2.938-4.775-2.938-7.859c0-3.14,1-5.703,3.001-7.69
			c2.001-1.987,4.572-2.98,7.712-2.98c3.167,0,5.706,0.902,7.615,2.705c1.909,1.803,2.864,4.211,2.864,7.224v11.412H173.826z"/>
		<path fill="#FFFFFF" d="M180.059,52.879V40.703c0-2.674,0.824-4.869,2.471-6.587c1.648-1.718,3.787-2.578,6.418-2.578
			c2.588,0,4.717,0.867,6.385,2.599c1.668,1.732,2.504,3.921,2.504,6.566v12.176h-3.967V40.745c0-1.471-0.482-2.733-1.443-3.786
			c-0.961-1.054-2.121-1.581-3.479-1.581c-1.387,0-2.557,0.527-3.512,1.581c-0.953,1.053-1.432,2.301-1.432,3.744v12.176H180.059z"
			/>
		<path fill="#FFFFFF" d="M214.399,35.781c-3.068-0.028-5.346,0.312-6.83,1.019c-2.121,1.004-3.182,2.878-3.182,5.622
			c0,2.743,1.061,4.617,3.182,5.621c1.484,0.707,3.762,1.054,6.83,1.039v3.797h-3.691c-2.885,0-5.346-1.021-7.381-3.064
			c-2.037-2.044-3.055-4.508-3.055-7.393c0-2.871,1.021-5.332,3.064-7.383s4.5-3.076,7.371-3.076h3.691V35.781z"/>
		<path fill="#FFFFFF" d="M222.036,46.101l-1.639-3.186l10.141-5.691c-1.217-1.23-2.729-1.845-4.539-1.845
			c-1.924,0-3.512,0.676-4.764,2.029c-1.25,1.353-1.877,3.027-1.877,5.024c0,2.04,0.629,3.732,1.889,5.078
			c1.258,1.346,2.842,2.018,4.752,2.018c3.789,0,6.074-2.17,6.852-6.512l3.988,0.509c-0.283,2.913-1.426,5.271-3.426,7.075
			c-2.002,1.803-4.465,2.704-7.393,2.704c-3.041,0-5.598-1.054-7.67-3.161s-3.107-4.681-3.107-7.721
			c0-3.027,1.039-5.597,3.119-7.712c2.078-2.114,4.625-3.171,7.639-3.171c2.191,0,4.176,0.588,5.951,1.763
			c1.775,1.174,3.15,2.816,4.127,4.925L222.036,46.101z"/>
		<path fill="#FFFFFF" d="M238.532,31.963h3.775v2.27c0.82-1.089,1.781-1.832,2.885-2.228c0.904-0.325,2.121-0.48,3.648-0.467v3.84
			c-2.221,0-3.836,0.608-4.846,1.825c-1.012,1.216-1.518,3.189-1.518,5.918v9.758h-3.945V31.963z"/>
		<path fill="#FFFFFF" d="M260.758,52.858V40.385c0-1.556-0.697-2.334-2.09-2.334c-1.406,0-2.109,0.778-2.109,2.334v12.474h-6.98
			V39.26c0-2.291,0.846-4.196,2.535-5.716c1.689-1.52,3.773-2.281,6.248-2.281c2.092,0,4.059,0.962,5.896,2.885
			c1.754-1.923,3.721-2.885,5.898-2.885c2.475,0,4.564,0.764,6.268,2.292c1.705,1.527,2.557,3.429,2.557,5.706v13.599h-7.021V40.385
			c0-1.556-0.699-2.334-2.1-2.334c-1.387,0-2.08,0.778-2.08,2.334v12.474H260.758z"/>
		<path fill="#FFFFFF" d="M297.327,52.858c0-0.467,0.049-1.623,0.148-3.469c0.098-1.845,0.148-3.044,0.148-3.596
			c0-5.388-1.689-8.082-5.07-8.082c-1.23,0-2.305,0.442-3.225,1.325c-0.92,0.885-1.379,1.935-1.379,3.15
			c0,1.33,0.418,2.451,1.252,3.363s1.895,1.367,3.182,1.367c1.117,0,2.242-0.212,3.373-0.636v5.854c-1.23,0.82-2.807,1.23-4.73,1.23
			c-2.801,0-5.184-1.085-7.148-3.256c-1.967-2.171-2.949-4.756-2.949-7.754c0-3.182,1.092-5.826,3.277-7.934
			s4.926-3.161,8.221-3.161c3.521,0,6.381,0.937,8.58,2.811s3.299,4.352,3.299,7.435v11.35H297.327z"/>
		<path fill="#FFFFFF" d="M306.592,61.938V41.551c0-3.04,1.117-5.507,3.352-7.403c2.234-1.895,5.078-2.843,8.529-2.843
			c3.238,0,5.963,1.068,8.178,3.204c2.213,2.135,3.318,4.766,3.318,7.892c0,3.139-1.066,5.759-3.203,7.859
			c-2.135,2.1-4.787,3.15-7.955,3.15c-1.271,0-2.41-0.178-3.414-0.531v-6.576c0.82,0.439,1.803,0.658,2.947,0.658
			c1.287,0,2.377-0.445,3.268-1.336c0.891-0.892,1.336-1.98,1.336-3.268c0-1.258-0.453-2.34-1.361-3.246
			c-0.906-0.904-1.99-1.357-3.252-1.357c-1.459,0-2.619,0.499-3.477,1.496c-0.857,0.996-1.285,2.322-1.285,3.977v18.711H306.592z"/>
	</g>
</g>
</svg>
